<svg width="18" height="12" viewBox="0 0 18 12" fill="none" xmlns="http://www.w3.org/2000/svg">
<path d="M12.7071 0.292893C12.3166 -0.0976311 11.6834 -0.0976311 11.2929 0.292893C10.9024 0.683417 10.9024 1.31658 11.2929 1.70711L12.7071 0.292893ZM17 6L17.7071 6.70711C18.0976 6.31658 18.0976 5.68342 17.7071 5.29289L17 6ZM11.2929 10.2929C10.9024 10.6834 10.9024 11.3166 11.2929 11.7071C11.6834 12.0976 12.3166 12.0976 12.7071 11.7071L11.2929 10.2929ZM1 5H0V7H1V5ZM16 7C16.5523 7 17 6.55228 17 6C17 5.44772 16.5523 5 16 5V7ZM11.2929 1.70711L16.2929 6.70711L17.7071 5.29289L12.7071 0.292893L11.2929 1.70711ZM16.2929 5.29289L11.2929 10.2929L12.7071 11.7071L17.7071 6.70711L16.2929 5.29289ZM1 7H16V5H1V7Z" fill="#363636"/>
</svg>
